<svg width="111" height="72" viewBox="0 0 111 72" fill="none" xmlns="http://www.w3.org/2000/svg">
<path fill-rule="evenodd" clip-rule="evenodd" d="M37.7895 26.0468C41.3476 24.4595 44.3854 22.4881 46.6685 19.499C48.7197 16.8137 49.6706 13.7173 49.3056 10.2474C48.957 6.93158 46.4683 5.26056 43.3693 6.16963C42.0357 6.5616 40.9025 7.29762 39.9124 8.26714C38.1153 10.0263 36.8735 12.1579 36.0211 14.5501C34.6664 18.353 34.4461 22.2558 35.323 26.2644C35.4307 26.7551 35.6152 26.8674 36.051 26.6916C36.689 26.4346 37.3413 26.2116 37.7895 26.0468ZM94.6587 51.3605C94.5808 51.1276 94.3594 51.0591 94.1913 50.9411C91.8336 49.2853 89.6977 47.3652 87.7543 45.2161C86.8649 44.2328 86.1159 43.155 85.6818 41.878C85.5507 41.4926 85.4609 41.101 85.456 40.6961C85.4391 39.4642 86.3136 38.7895 87.4698 39.1431C88.0253 39.3134 88.5145 39.6296 88.998 39.9499C90.6776 41.0621 92.2758 42.2931 93.8572 43.5477C97.8307 46.6983 102.108 49.3458 106.487 51.8238C106.898 52.0557 107.328 52.2386 107.778 52.3695C108.209 52.4955 108.627 52.6611 109.015 52.8996C110.474 53.7977 110.959 55.5505 110.148 57.0399C109.619 58.0136 108.794 58.6822 107.891 59.2521C106.586 60.0748 105.194 60.7313 103.803 61.3794C100.563 62.8889 97.5064 64.7278 94.4302 66.5407C91.6904 68.1558 88.7934 69.4781 85.8689 70.7274C85.3982 70.9281 84.9098 71.0938 84.3915 71.1308C83.6496 71.184 83.0094 70.9512 82.5704 70.2929C82.1209 69.6176 82.1378 68.9138 82.4857 68.2175C82.7552 67.6784 83.1634 67.2519 83.598 66.8615C87.353 63.4958 91.1652 60.2119 95.8077 58.1279C95.9326 58.0718 96.0771 58.0347 96.1504 57.8856C96.0992 57.7081 95.9509 57.7646 95.8469 57.7683C89.2699 58.0279 82.7489 57.0424 76.2253 56.2379C70.5107 55.5329 64.8176 54.6058 59.1927 53.2473C54.0993 52.0187 49.2088 50.2001 44.7322 47.296C40.1571 44.3287 36.3409 40.579 33.6419 35.7128C33.1964 34.9107 32.7772 34.0941 32.4352 33.242C32.3073 32.9245 32.131 32.7943 31.7882 32.8068C25.1715 33.0535 19.2817 30.8111 13.9273 26.7946C9.48038 23.4585 5.76805 19.4315 3.09025 14.4631C1.98261 12.4069 1.03317 10.2821 0.610645 7.96327C0.469336 7.18901 0.586945 6.75783 0.992821 6.63182C1.61381 6.44056 1.89693 6.92752 2.18327 7.3512C4.17297 10.2947 6.10552 13.2837 8.41475 15.984C11.952 20.12 16.0237 23.5359 20.9787 25.7072C23.8693 26.9746 26.8882 27.5707 29.9997 27.5973C30.6556 27.6029 30.6538 27.5973 30.5291 26.9297C29.1619 19.6288 30.5746 12.9642 34.5252 6.95087C36.3761 4.13229 38.9327 2.14969 42.1661 1.14988C48.4829 -0.804159 54.4078 3.24478 55.063 10.0602C55.5235 14.853 54.1188 19.1115 51.3115 22.8021C47.9406 27.234 43.434 30.0352 38.2244 31.7276C37.4186 31.9894 37.3983 31.9812 37.8707 32.7488C40.545 37.0917 44.1818 40.3466 48.5916 42.7035C52.8707 44.9894 57.4368 46.3367 62.1105 47.2997C69.7899 48.8811 77.5301 49.8634 85.3151 50.4264C88.3141 50.6432 91.3132 50.8903 94.2938 51.38C94.4101 51.3996 94.5353 51.454 94.6587 51.3605Z" fill="white"/>
</svg>
