<svg width="100" height="100" viewBox="0 0 100 100" fill="none" xmlns="http://www.w3.org/2000/svg">
<g opacity="0.9">
<rect width="100" height="100" fill="white"/>
<path d="M43.75 66.5416L45.4584 76.7082C44.375 77.2916 42.625 77.8332 40.2917 78.3332C37.9167 78.8749 35.125 79.1666 31.9167 79.1666C22.7084 78.9999 15.7917 76.2499 11.1667 70.9999C6.50002 65.7083 4.16669 58.9999 4.16669 50.8749C4.37502 41.2499 7.16669 33.8749 12.5 28.7083C18 23.4999 24.8334 20.8333 33.0834 20.8333C36.2084 20.8333 38.9167 21.1249 41.1667 21.6249C43.4167 22.1249 45.0834 22.6666 46.1667 23.2916L43.75 33.6666L39.3334 32.2499C37.6667 31.8333 35.75 31.6249 33.5417 31.6249C28.7084 31.5833 24.7084 33.1249 21.5834 36.2083C18.4167 39.2499 16.7917 43.9166 16.6667 50.1249C16.6667 55.7916 18.2084 60.2082 21.1667 63.4582C24.125 66.6666 28.2917 68.3332 33.625 68.3749L39.1667 67.8749C40.9584 67.5416 42.4584 67.0833 43.75 66.5416ZM45.8334 45.8333H54.1667V37.4999H62.5V45.8333H70.8334V54.1666H62.5V62.4999H54.1667V54.1666H45.8334V45.8333ZM75 45.8333H83.3334V37.4999H91.6667V45.8333H100V54.1666H91.6667V62.4999H83.3334V54.1666H75V45.8333Z" fill="black"/>
</g>
</svg>
