<svg width="100" height="100" viewBox="0 0 100 100" fill="none" xmlns="http://www.w3.org/2000/svg">
<g opacity="0.9">
<rect width="100" height="100" fill="white"/>
<path fill-rule="evenodd" clip-rule="evenodd" d="M36.1125 5.20827C32.4999 5.2056 28.9803 6.35297 26.0634 8.48421C23.1464 10.6155 20.9836 13.6199 19.8883 17.0624C18.7929 20.5049 18.8218 24.2068 19.9708 27.6317C21.1199 31.0567 23.3293 34.027 26.2792 36.1124C24.0587 37.684 22.2478 39.7654 20.9985 42.182C19.7493 44.5985 19.0982 47.2796 19.1 49.9999C19.1 55.7333 21.9375 60.8083 26.2875 63.8874C23.9045 65.5743 21.9957 67.8461 20.7448 70.4841C19.4938 73.1222 18.9429 76.0379 19.145 78.9505C19.347 81.8632 20.2953 84.6748 21.8985 87.1149C23.5017 89.555 25.7059 91.5414 28.299 92.883C30.8921 94.2247 33.7869 94.8764 36.7048 94.7755C39.6227 94.6745 42.4655 93.8243 44.9598 92.3067C47.454 90.7891 49.5156 88.6551 50.9464 86.1101C52.3772 83.565 53.1289 80.6946 53.1292 77.7749V63.1749C54.8991 64.6088 56.9389 65.6727 59.1277 66.3034C61.3164 66.9342 63.6096 67.1189 65.8711 66.8468C68.1326 66.5746 70.3165 65.8511 72.2931 64.7191C74.2697 63.5871 75.9989 62.0696 77.3781 60.2568C78.7573 58.4439 79.7583 56.3726 80.3219 54.1656C80.8856 51.9585 81.0002 49.6608 80.6591 47.4087C80.3181 45.1565 79.5282 42.9958 78.3363 41.0546C77.1445 39.1135 75.575 37.4314 73.7208 36.1083C76.6707 34.0229 78.8802 31.0526 80.0292 27.6276C81.1782 24.2026 81.2071 20.5008 80.1117 17.0583C79.0164 13.6157 76.8536 10.6113 73.9367 8.48005C71.0197 6.3488 67.5001 5.20143 63.8875 5.20411L36.1125 5.20827ZM46.875 60.7624H36.1125C34.6992 60.7624 33.2996 60.4841 31.9939 59.9432C30.6881 59.4023 29.5017 58.6096 28.5023 57.6102C27.5029 56.6108 26.7101 55.4243 26.1693 54.1186C25.6284 52.8128 25.35 51.4133 25.35 49.9999C25.35 48.5866 25.6284 47.1871 26.1693 45.8813C26.7101 44.5755 27.5029 43.3891 28.5023 42.3897C29.5017 41.3903 30.6881 40.5975 31.9939 40.0567C33.2996 39.5158 34.6992 39.2374 36.1125 39.2374H46.875V60.7624ZM36.1125 32.9874H46.875V11.4583H36.1125C33.2576 11.4583 30.5196 12.5924 28.5008 14.6111C26.4821 16.6299 25.3479 19.3679 25.3479 22.2229C25.3479 25.0778 26.4821 27.8158 28.5008 29.8346C30.5196 31.8533 33.2576 32.9874 36.1125 32.9874ZM74.6542 22.2208C74.6553 25.0737 73.5236 27.8104 71.5078 29.8293C69.492 31.8482 66.7571 32.9841 63.9042 32.9874H53.125V11.4583H63.8917C65.305 11.4583 66.7045 11.7367 68.0103 12.2775C69.3161 12.8184 70.5025 13.6111 71.5019 14.6105C72.5013 15.6099 73.2941 16.7964 73.8349 18.1021C74.3758 19.4079 74.6542 20.8074 74.6542 22.2208ZM53.125 49.9874C53.1283 47.1374 54.262 44.405 56.2773 42.3897C58.2926 40.3744 61.0249 39.2407 63.875 39.2374H63.9C66.0276 39.2399 68.1067 39.8729 69.8746 41.0565C71.6426 42.24 73.0201 43.921 73.8331 45.8871C74.6462 47.8532 74.8583 50.0161 74.4426 52.1027C74.0269 54.1892 73.0021 56.1058 71.4977 57.6102C69.9933 59.1146 68.0768 60.1394 65.9902 60.555C63.9037 60.9707 61.7407 60.7586 59.7747 59.9456C57.8086 59.1325 56.1276 57.755 54.944 55.9871C53.7605 54.2191 53.1275 52.14 53.125 50.0124V49.9874ZM36.1125 67.0124C33.9841 67.0124 31.9034 67.6435 30.1336 68.826C28.3638 70.0084 26.9844 71.689 26.1697 73.6553C25.3549 75.6217 25.1416 77.7855 25.5565 79.8731C25.9714 81.9607 26.9961 83.8784 28.5008 85.3837C30.0055 86.889 31.9229 87.9144 34.0103 88.3301C36.0977 88.7459 38.2616 88.5333 40.2283 87.7194C42.1949 86.9054 43.8761 85.5266 45.0592 83.7573C46.2423 81.988 46.8742 79.9075 46.875 77.7791V67.0124H36.1125Z" fill="black"/>
</g>
</svg>
