<svg width="101" height="101" viewBox="0 0 101 101" fill="none" xmlns="http://www.w3.org/2000/svg">
<g opacity="0.9">
<rect width="100" height="100" transform="translate(0 1)" fill="white"/>
<path fill-rule="evenodd" clip-rule="evenodd" d="M50 10.3751C43.6454 10.3774 37.3799 11.8703 31.707 14.734C26.0342 17.5977 21.1123 21.7523 17.3368 26.8638C13.5614 31.9753 11.0377 37.9012 9.96857 44.1653C8.89945 50.4293 9.31472 56.8568 11.181 62.9313C13.0473 69.0057 16.3126 74.5576 20.7144 79.1407C25.1162 83.7239 30.5318 87.2106 36.526 89.3205C42.5201 91.4304 48.9257 92.1047 55.2278 91.2892C61.5299 90.4737 67.5528 88.1912 72.8125 84.6251L37.5 42.1064V71.3126C37.5 72.5558 37.0061 73.7481 36.1271 74.6272C35.248 75.5062 34.0557 76.0001 32.8125 76.0001C31.5693 76.0001 30.377 75.5062 29.4979 74.6272C28.6189 73.7481 28.125 72.5558 28.125 71.3126V29.1251C28.1239 28.1606 28.4203 27.2193 28.9739 26.4294C29.5274 25.6396 30.3111 25.0398 31.2181 24.7117C32.125 24.3836 33.1111 24.3433 34.0418 24.5963C34.9726 24.8492 35.8026 25.3831 36.4188 26.1251L83.1313 82.3751C83.9189 83.3212 84.3027 84.5392 84.1997 85.7659C84.0968 86.9927 83.5155 88.1297 82.5813 88.9314C73.2535 96.9344 61.3049 101.221 49.017 100.974C36.729 100.727 24.9626 95.9622 15.9646 87.5902C6.96649 79.2183 1.36714 67.8255 0.235681 55.5872C-0.895778 43.349 2.51993 31.1227 9.83059 21.243C17.1412 11.3633 27.8347 4.52225 39.869 2.02622C51.9033 -0.469818 64.4354 1.554 75.0722 7.71124C85.7091 13.8685 93.7056 23.7277 97.5348 35.4065C101.364 47.0852 100.757 59.7651 95.8313 71.0251C95.5842 71.5894 95.2284 72.0995 94.7843 72.5262C94.3401 72.953 93.8162 73.2881 93.2425 73.5125C92.6688 73.7368 92.0565 73.8459 91.4407 73.8336C90.8248 73.8213 90.2174 73.6878 89.6531 73.4407C89.0889 73.1937 88.5788 72.8379 88.152 72.3937C87.7252 71.9495 87.3901 71.4257 87.1658 70.852C86.9415 70.2783 86.8324 69.666 86.8447 69.0501C86.857 68.4343 86.9905 67.8269 87.2375 67.2626C89.4834 62.1357 90.6371 56.5973 90.625 51.0001C90.625 40.2257 86.3449 29.8926 78.7262 22.2739C71.1076 14.6552 60.7744 10.3751 50 10.3751ZM65.625 24.4376C66.8682 24.4376 68.0605 24.9315 68.9396 25.8105C69.8186 26.6896 70.3125 27.8819 70.3125 29.1251V47.8751C70.3125 49.1183 69.8186 50.3106 68.9396 51.1897C68.0605 52.0687 66.8682 52.5626 65.625 52.5626C64.3818 52.5626 63.1895 52.0687 62.3104 51.1897C61.4314 50.3106 60.9375 49.1183 60.9375 47.8751V29.1251C60.9375 27.8819 61.4314 26.6896 62.3104 25.8105C63.1895 24.9315 64.3818 24.4376 65.625 24.4376Z" fill="black"/>
</g>
</svg>
