<svg width="100" height="100" viewBox="0 0 100 100" fill="none" xmlns="http://www.w3.org/2000/svg">
<g opacity="0.9" clip-path="url(#clip0_29_19)">
<rect width="100" height="100" fill="white"/>
<path d="M50 99.8167C48.575 99.8167 47.25 99.4458 46.0125 98.8041L33.3917 91.5625C31.4958 90.5541 32.4458 90.1875 33.0167 90.0042C35.575 89.1791 36.05 88.9958 38.7083 87.525C38.9917 87.3417 39.375 87.4333 39.6583 87.6166L49.3375 93.2125C49.7125 93.3958 50.1917 93.3958 50.475 93.2125L88.3375 72.0291C88.7125 71.8458 88.9041 71.4791 88.9041 71.0208V28.7458C88.9041 28.2875 88.7166 27.9208 88.3375 27.7375L50.475 6.64996C50.0958 6.46662 49.6208 6.46662 49.3375 6.64996L11.475 27.7375C11.0958 27.9208 10.9042 28.3791 10.9042 28.7458V71.0208C10.9042 71.3875 11.0958 71.8458 11.475 72.0291L21.8167 77.8083C27.4167 80.5583 30.925 77.35 30.925 74.1416V32.4166C30.925 31.8666 31.4 31.3166 32.0667 31.3166H36.9042C37.475 31.3166 38.0417 31.775 38.0417 32.4166V74.1375C38.0417 81.3833 33.9625 85.6 26.8458 85.6C24.6625 85.6 22.9542 85.6 18.1167 83.3083L8.15418 77.8083C6.95456 77.1472 5.95278 76.1783 5.25193 75.0014C4.55108 73.8246 4.17648 72.4822 4.16669 71.1125V28.8375C4.16669 26.0875 5.68335 23.5208 8.15418 22.1458L46.0167 0.958289C47.2498 0.327791 48.615 -0.000976563 50 -0.000976562C51.385 -0.000976562 52.7502 0.327791 53.9833 0.958289L91.85 22.1416C94.3166 23.5166 95.8333 26.0833 95.8333 28.8333V71.1083C95.8333 73.8583 94.3166 76.425 91.85 77.8041L53.9875 98.9833C52.729 99.5289 51.3717 99.8097 50 99.8083M61.6708 70.7375C45.0667 70.7375 41.65 63.4041 41.65 57.1666C41.65 56.6166 42.125 56.0666 42.7875 56.0666H47.7208C48.2917 56.0666 48.7625 56.4333 48.7625 56.9833C49.525 61.8416 51.7083 64.225 61.7667 64.225C69.7375 64.225 73.1541 62.4833 73.1541 58.3583C73.1541 55.975 72.2041 54.2333 59.775 53.0416C49.4292 52.0291 42.9792 49.8333 42.9792 41.8541C42.9792 34.425 49.4292 30.0208 60.25 30.0208C72.3958 30.0208 78.375 34.0583 79.1333 42.8625C79.124 43.1604 79.0237 43.4483 78.8458 43.6875C78.6583 43.8708 78.375 44.0541 78.0875 44.0541H73.1541C72.9145 44.0483 72.6832 43.9647 72.4953 43.8159C72.3074 43.667 72.173 43.4611 72.1125 43.2291C70.9708 38.1875 68.0291 36.5333 60.25 36.5333C51.5167 36.5333 50.475 39.4666 50.475 41.6708C50.475 44.3291 51.7083 45.1541 63.475 46.6208C75.1458 48.0875 80.65 50.1958 80.65 58.0791C80.5541 66.1541 73.725 70.7375 61.6708 70.7375Z" fill="black"/>
</g>
<defs>
<clipPath id="clip0_29_19">
<rect width="100" height="100" fill="white"/>
</clipPath>
</defs>
</svg>
