<svg width="100" height="100" viewBox="0 0 100 100" fill="none" xmlns="http://www.w3.org/2000/svg">
<g opacity="0.9">
<rect width="100" height="100" fill="white"/>
<path d="M17.285 71.73V40.905H21.56L21.92 43.245H22.1C23.03 42.435 24.065 41.76 25.205 41.22C26.345 40.65 27.53 40.365 28.76 40.365C30.59 40.365 32.15 40.83 33.44 41.76C34.73 42.69 35.72 43.995 36.41 45.675C37.1 47.355 37.445 49.335 37.445 51.615C37.445 54.135 36.995 56.295 36.095 58.095C35.195 59.865 34.025 61.215 32.585 62.145C31.175 63.075 29.645 63.54 27.995 63.54C27.005 63.54 26.03 63.33 25.07 62.91C24.14 62.46 23.225 61.86 22.325 61.11L22.46 64.8V71.73H17.285ZM26.915 59.265C27.905 59.265 28.79 58.98 29.57 58.41C30.35 57.84 30.965 56.985 31.415 55.845C31.865 54.705 32.09 53.31 32.09 51.66C32.09 50.19 31.925 48.93 31.595 47.88C31.265 46.83 30.74 46.035 30.02 45.495C29.33 44.925 28.415 44.64 27.275 44.64C26.495 44.64 25.715 44.85 24.935 45.27C24.155 45.66 23.33 46.275 22.46 47.115V57.42C23.27 58.08 24.05 58.56 24.8 58.86C25.58 59.13 26.285 59.265 26.915 59.265ZM52.0454 63.54C50.4854 63.54 49.1054 63.36 47.9054 63C46.7054 62.64 45.6404 62.16 44.7104 61.56C43.7804 60.93 42.9704 60.27 42.2804 59.58L44.6654 56.25C45.5354 57.06 46.5104 57.78 47.5904 58.41C48.6704 59.01 49.9304 59.31 51.3704 59.31C52.4504 59.31 53.4104 59.1 54.2504 58.68C55.0904 58.23 55.7354 57.6 56.1854 56.79C56.6654 55.95 56.9054 54.96 56.9054 53.82C56.9054 52.11 56.4254 50.79 55.4654 49.86C54.5054 48.93 53.2154 48.465 51.5954 48.465C50.6954 48.465 49.9304 48.6 49.3004 48.87C48.6704 49.11 47.9204 49.515 47.0504 50.085L44.5754 48.465L45.4304 34.335H60.7304V38.745H49.9304L49.3454 45.675C49.9454 45.375 50.5304 45.15 51.1004 45C51.7004 44.85 52.3754 44.775 53.1254 44.775C54.7754 44.775 56.2754 45.09 57.6254 45.72C58.9754 46.35 60.0554 47.325 60.8654 48.645C61.7054 49.965 62.1254 51.645 62.1254 53.685C62.1254 55.785 61.6454 57.57 60.6854 59.04C59.7554 60.51 58.5254 61.635 56.9954 62.415C55.4654 63.165 53.8154 63.54 52.0454 63.54ZM72.5067 45.72L70.2117 44.055L72.8217 39.6L68.2317 37.62L69.0867 34.965L73.9917 36.045L74.4867 30.96H77.3217L77.8167 36.045L82.7667 34.965L83.6217 37.62L78.9867 39.6L81.5967 44.055L79.3467 45.72L75.9267 41.805L72.5067 45.72Z" fill="black"/>
</g>
</svg>
