<svg width="100" height="100" viewBox="0 0 100 100" fill="none" xmlns="http://www.w3.org/2000/svg">
<g opacity="0.9">
<rect width="100" height="100" fill="white"/>
<path d="M89.875 39.2876C88.4 33.6418 85.7083 29.2043 80.0625 29.2043H72.5417V38.0793C72.5417 44.9334 66.625 50.7126 60.3083 50.7126H40.2708C34.7625 50.7126 30.4583 55.4209 30.4583 60.9293V79.8876C30.4583 85.1251 35.1667 88.3543 40.2708 90.1001C46.4583 91.9834 52.5042 92.3876 60.1667 90.1001C65.1417 88.6209 69.9833 85.8001 69.9833 79.8834V72.3543H50.2208V69.9376H80.0625C85.7083 69.9376 87.9958 65.9043 89.875 59.8543C91.8917 53.2668 91.8917 47.2168 89.875 39.2876ZM61.375 76.9251C63.3958 76.9251 65.1417 78.6751 65.1417 80.6918C65.1417 82.7084 63.3917 84.4543 61.3792 84.4543C59.3625 84.5876 57.6125 82.7043 57.6125 80.6918C57.4792 78.6751 59.225 76.9251 61.3792 76.9251M39.3375 48.1584H59.2333C64.7417 48.1584 69.0458 43.5876 69.0458 37.9418V19.2543C69.0458 14.0126 64.475 9.97926 59.2292 9.0376C52.6458 8.1001 45.3833 8.1001 39.3375 9.0376C30.8667 10.5168 29.5208 13.6084 29.5208 19.2543V26.7834H49.4167V29.2001H22.2583C16.6125 29.2001 11.5042 32.8334 10.025 39.2834C8.14165 46.8126 8.14165 51.5168 10.025 59.3168C11.5042 65.2334 14.7333 69.4001 20.6458 69.4001H27.1V60.3918C26.9625 53.8043 32.7458 48.1584 39.3333 48.1584M38.125 21.6751C37.133 21.6549 36.1873 21.2521 35.4854 20.551C34.7834 19.8498 34.3796 18.9045 34.3583 17.9126C34.3583 15.8959 36.1083 14.1459 38.1208 14.1459C40.1333 14.1459 41.8875 15.8959 41.8875 17.9126C41.8875 19.9293 40.1417 21.6751 38.125 21.6751Z" fill="black"/>
</g>
</svg>
