<svg width="100" height="100" viewBox="0 0 100 100" fill="none" xmlns="http://www.w3.org/2000/svg">
<g opacity="0.9">
<rect width="100" height="100" fill="white"/>
<path d="M50 42.1249C54.2917 42.1249 57.7917 45.6249 57.7917 49.9999C57.7917 54.1666 54.2917 57.7083 50 57.7083C45.7083 57.7083 42.2083 54.1666 42.2083 49.9999C42.2083 45.6249 45.7083 42.1249 50 42.1249ZM30.7083 83.3333C33.3333 84.9166 39.0833 82.4999 45.7083 76.2499C43.5417 73.7916 41.4167 71.1249 39.4167 68.3333C36.0593 68.0096 32.7213 67.5089 29.4167 66.8333C27.2917 75.7499 28.0833 81.8749 30.7083 83.3333ZM33.6667 59.4166L32.4583 57.2916C32 58.4999 31.5417 59.7083 31.25 60.8749C32.375 61.1249 33.625 61.3333 34.9167 61.5416L33.6667 59.4166ZM60.9167 56.2499L64.2917 49.9999L60.9167 43.7499C59.6667 41.5416 58.3333 39.5833 57.125 37.6249C54.875 37.4999 52.5 37.4999 50 37.4999C47.5 37.4999 45.125 37.4999 42.875 37.6249C41.6667 39.5833 40.3333 41.5416 39.0833 43.7499L35.7083 49.9999L39.0833 56.2499C40.3333 58.4583 41.6667 60.4166 42.875 62.3749C45.125 62.4999 47.5 62.4999 50 62.4999C52.5 62.4999 54.875 62.4999 57.125 62.3749C58.3333 60.4166 59.6667 58.4583 60.9167 56.2499ZM50 28.2499C49.2083 29.1666 48.375 30.1249 47.5417 31.2499H52.4583C51.625 30.1249 50.7917 29.1666 50 28.2499ZM50 71.7499C50.7917 70.8333 51.625 69.8749 52.4583 68.7499H47.5417C48.375 69.8749 49.2083 70.8333 50 71.7499ZM69.25 16.6666C66.6667 15.0833 60.9167 17.4999 54.2917 23.7499C56.4583 26.2083 58.5833 28.8749 60.5833 31.6666C64 31.9999 67.375 32.4999 70.5834 33.1666C72.7084 24.2499 71.9167 18.1249 69.25 16.6666ZM66.3333 40.5833L67.5417 42.7083C68 41.4999 68.4583 40.2916 68.75 39.1249C67.625 38.8749 66.375 38.6666 65.0833 38.4583L66.3333 40.5833ZM72.375 11.2083C78.5 14.7083 79.1667 23.9166 76.5834 34.6666C87.1667 37.7916 94.7917 42.9583 94.7917 49.9999C94.7917 57.0416 87.1667 62.2083 76.5834 65.3333C79.1667 76.0833 78.5 85.2916 72.375 88.7916C66.2917 92.2916 58 88.2916 50 80.6666C42 88.2916 33.7083 92.2916 27.5833 88.7916C21.5 85.2916 20.8333 76.0833 23.4167 65.3333C12.8333 62.2083 5.20831 57.0416 5.20831 49.9999C5.20831 42.9583 12.8333 37.7916 23.4167 34.6666C20.8333 23.9166 21.5 14.7083 27.5833 11.2083C33.7083 7.70826 42 11.7083 50 19.3333C58 11.7083 66.2917 7.70826 72.375 11.2083ZM71.1667 49.9999C72.5834 53.1249 73.8333 56.2499 74.875 59.4166C83.625 56.7916 88.5417 53.0416 88.5417 49.9999C88.5417 46.9583 83.625 43.2083 74.875 40.5833C73.8333 43.7499 72.5834 46.8749 71.1667 49.9999ZM28.8333 49.9999C27.4167 46.8749 26.1667 43.7499 25.125 40.5833C16.375 43.2083 11.4583 46.9583 11.4583 49.9999C11.4583 53.0416 16.375 56.7916 25.125 59.4166C26.1667 56.2499 27.4167 53.1249 28.8333 49.9999ZM66.3333 59.4166L65.0833 61.5416C66.375 61.3333 67.625 61.1249 68.75 60.8749C68.4583 59.7083 68 58.4999 67.5417 57.2916L66.3333 59.4166ZM54.2917 76.2499C60.9167 82.4999 66.6667 84.9166 69.25 83.3333C71.9167 81.8749 72.7084 75.7499 70.5834 66.8333C67.375 67.4999 64 67.9999 60.5833 68.3333C58.5833 71.1249 56.4583 73.7916 54.2917 76.2499ZM33.6667 40.5833L34.9167 38.4583C33.625 38.6666 32.375 38.8749 31.25 39.1249C31.5417 40.2916 32 41.4999 32.4583 42.7083L33.6667 40.5833ZM45.7083 23.7499C39.0833 17.4999 33.3333 15.0833 30.7083 16.6666C28.0833 18.1249 27.2917 24.2499 29.4167 33.1666C32.7213 32.491 36.0593 31.9903 39.4167 31.6666C41.4167 28.8749 43.5417 26.2083 45.7083 23.7499Z" fill="black"/>
</g>
</svg>
