<svg width="100" height="100" viewBox="0 0 100 100" fill="none" xmlns="http://www.w3.org/2000/svg">
<g opacity="0.9">
<rect width="100" height="100" fill="white"/>
<path d="M47.8267 0.766584C48.4426 0.270953 49.2094 0.000732422 50 0.000732422C50.7906 0.000732422 51.5574 0.270953 52.1733 0.766584L60.0267 7.09992L69.9133 4.71992C70.6787 4.53106 71.4856 4.61077 72.1992 4.94571C72.9128 5.28066 73.4897 5.85051 73.8333 6.55992L78.1 15.5933L88.06 17.6399C89.66 17.9732 90.8 19.3599 90.7733 20.9599L90.5933 30.9066L98.6667 36.9733C99.2954 37.4344 99.7384 38.1052 99.9156 38.8645C100.093 39.6237 99.9928 40.4214 99.6333 41.1133L95.0667 49.9999L99.64 58.8866C99.9976 59.5778 100.097 60.3739 99.9195 61.1317C99.7423 61.8894 99.3004 62.559 98.6733 63.0199L93.8333 66.6666H77.3133C76.8703 66.6719 76.4306 66.5898 76.0193 66.4252C75.608 66.2605 75.2332 66.0164 74.9163 65.7069C74.5993 65.3974 74.3464 65.0284 74.172 64.6212C73.9977 64.2139 73.9052 63.7763 73.9 63.3333C73.8961 60.9647 73.3813 58.6249 72.3907 56.4734C71.4002 54.3219 69.9571 52.4095 68.16 50.8666C71.6333 48.4466 73.8933 44.4799 73.8933 39.9999C73.8933 32.6333 67.7867 26.6666 60.2467 26.6666H9.32668L9.22668 20.9599C9.21615 20.1758 9.48243 19.413 9.9787 18.8058C10.475 18.1985 11.1695 17.7857 11.94 17.6399L21.9067 15.5933L26.1667 6.55992C26.5104 5.85051 27.0873 5.28066 27.8008 4.94571C28.5144 4.61077 29.3214 4.53106 30.0867 4.71992L39.9733 7.09992L47.8267 0.766584Z" fill="black"/>
<path d="M6.17331 33.3333L1.33331 36.9733C0.704634 37.4344 0.261632 38.1052 0.0843496 38.8645C-0.0929331 39.6237 0.00719609 40.4214 0.366645 41.1133L4.93331 49.9999L0.366645 58.8866C0.00902392 59.5778 -0.0901007 60.3739 0.0871184 61.1317C0.264338 61.8894 0.706257 62.559 1.33331 63.0199L6.17331 66.6666H26.1066V33.3333H6.17331Z" fill="black"/>
<path d="M9.33335 73.3333L9.22668 79.0399C9.21615 79.8241 9.48243 80.5868 9.9787 81.1941C10.475 81.8013 11.1695 82.2141 11.94 82.3599L21.9067 84.4066L26.1667 93.4399C26.8533 94.8933 28.5 95.6666 30.0867 95.2799L39.9733 92.8999L47.8267 99.2333C48.4426 99.7289 49.2094 99.9991 50 99.9991C50.7906 99.9991 51.5574 99.7289 52.1733 99.2333L60.0267 92.8999L69.9133 95.2799C70.6787 95.4688 71.4856 95.3891 72.1992 95.0541C72.9128 94.7192 73.4897 94.1493 73.8333 93.4399L78.1 84.4066L88.06 82.3599C88.8282 82.2093 89.5197 81.7951 90.0151 81.189C90.5105 80.5828 90.7787 79.8227 90.7733 79.0399L90.6667 73.3333H77.3C71.6467 73.3333 67.06 68.8533 67.06 63.3333C67.06 57.8133 62.48 53.3333 56.8267 53.3333H32.9333V66.6666H46.5867V73.3333H9.33335ZM60.24 46.6666H32.9333V33.3333H60.24C64.0067 33.3333 67.0667 36.3199 67.0667 39.9999C67.0667 43.6799 64 46.6666 60.24 46.6666Z" fill="black"/>
</g>
</svg>
