<?xml version="1.0" standalone="no"?>
<!DOCTYPE svg PUBLIC "-//W3C//DTD SVG 20010904//EN"
 "http://www.w3.org/TR/2001/REC-SVG-20010904/DTD/svg10.dtd">
<svg version="1.0" xmlns="http://www.w3.org/2000/svg"
 width="293.000000pt" height="293.000000pt" viewBox="0 0 293.000000 293.000000"
 preserveAspectRatio="xMidYMid meet">

<g transform="translate(0.000000,293.000000) scale(0.100000,-0.100000)"
fill="#000000" stroke="none">
<path d="M1302 2709 c-218 -28 -369 -154 -422 -351 -52 -193 2 -372 162 -531
l58 -59 -76 -71 c-42 -40 -82 -73 -89 -75 -16 -4 -118 81 -173 143 -116 132
-153 278 -121 474 9 56 19 92 54 196 18 52 -52 -69 -81 -139 -48 -118 -65
-189 -71 -301 -10 -176 38 -303 160 -423 40 -39 83 -80 97 -90 l24 -20 -37
-110 c-48 -141 -62 -247 -48 -341 13 -83 35 -153 63 -199 21 -34 37 -38 20 -5
-54 101 -76 296 -48 418 37 156 78 228 112 196 27 -26 208 -116 344 -171 275
-111 391 -178 487 -284 80 -87 98 -133 98 -246 0 -89 -2 -100 -35 -165 -22
-45 -58 -93 -100 -135 -106 -107 -222 -150 -402 -150 -491 0 -842 431 -764
939 9 57 29 142 45 189 17 48 28 88 27 90 -6 5 -60 -77 -89 -135 -68 -134 -94
-338 -63 -493 21 -103 86 -243 150 -322 187 -233 571 -346 896 -263 87 22 232
93 301 148 63 51 138 157 164 232 9 28 19 84 22 125 10 143 -32 254 -136 360
-118 120 -267 204 -572 323 -172 67 -289 122 -289 135 0 8 155 142 165 142 4
0 37 -18 74 -39 62 -37 193 -97 406 -186 108 -45 233 -107 289 -143 171 -110
290 -275 317 -438 21 -130 0 -257 -76 -449 -15 -38 46 57 79 124 155 307 127
580 -79 787 -88 88 -193 156 -364 236 -74 35 -202 95 -285 133 -82 39 -151 75
-153 81 -2 7 29 18 81 29 66 14 113 17 217 12 296 -11 493 -117 643 -346 34
-53 66 -104 69 -113 13 -36 24 -16 30 55 10 120 -7 164 -96 240 -250 213 -613
283 -929 180 l-77 -25 -40 31 c-73 58 -171 173 -200 235 -59 125 -64 247 -15
357 42 94 118 148 243 175 135 28 272 11 378 -48 73 -40 200 -166 240 -238 39
-68 79 -188 88 -264 5 -34 11 -54 17 -48 5 5 6 102 2 232 l-7 224 -29 26 c-41
38 -163 96 -250 120 -67 18 -260 42 -318 39 -14 -1 -53 -5 -88 -10z"/>
</g>
</svg>
