<svg width="100" height="100" viewBox="0 0 100 100" fill="none" xmlns="http://www.w3.org/2000/svg">
<g opacity="0.9">
<rect width="100" height="100" fill="white"/>
<path d="M79.7125 12.5H20.2875C16.3083 12.5 13.0792 15.7792 13.0792 19.825V80.175C13.0792 84.2167 16.3083 87.5 20.2875 87.5H79.7125C83.6958 87.5 86.9208 84.2208 86.9208 80.175V19.825C86.9208 15.7833 83.6958 12.5 79.7125 12.5ZM55.9125 54.1H46.6833V80.9083H39.3292V54.1H30.0958V48.0958H55.9125V54.1ZM79.7125 76.0875C79.1333 77.4083 78.1417 78.3875 76.9708 79.1667C75.7292 79.9344 74.3627 80.4788 72.9333 80.775C71.3208 81.1144 69.677 81.282 68.0292 81.275C66.3366 81.2802 64.6473 81.1268 62.9833 80.8167C61.5303 80.5609 60.1215 80.0978 58.8 79.4417V72.4042L58.525 72.1833L58.8 72.1208V72.4042C60.025 73.3958 61.375 74.1528 62.85 74.675C64.2958 75.2292 65.8792 75.5083 67.4667 75.5083C68.475 75.5083 69.2417 75.4208 69.9208 75.2583C70.531 75.1193 71.1149 74.8829 71.65 74.5583C72.0761 74.3002 72.429 73.9373 72.675 73.5042C72.9297 73.0225 73.0444 72.4792 73.0061 71.9357C72.9678 71.3922 72.778 70.8703 72.4583 70.4292C72.0689 69.8782 71.58 69.4048 71.0167 69.0333C70.3372 68.5525 69.6113 68.1407 68.85 67.8042C67.9875 67.4083 67.1083 66.9958 66.1125 66.5875C63.6583 65.4167 61.725 64.2458 60.4875 62.6292C59.2333 61.1708 58.6125 59.2625 58.6125 57.0667C58.6125 55.3083 58.9458 53.9 59.6208 52.6708C60.3417 51.3542 61.1917 50.3875 62.3625 49.5958C63.5167 48.7917 64.8125 48.2042 66.4 47.8375C67.9833 47.4708 69.575 47.2833 71.3042 47.2833C73.0333 47.2833 74.4792 47.3833 75.775 47.5875C77.0708 47.7958 78.2833 48.1167 79.3792 48.5417V55.425C78.8396 55.0294 78.26 54.6915 77.65 54.4167C76.3596 53.8569 75.0005 53.4716 73.6083 53.2708C72.9877 53.178 72.3609 53.132 71.7333 53.1333C70.9587 53.123 70.1854 53.2027 69.4292 53.3708C68.817 53.4929 68.2306 53.7199 67.6958 54.0417C67.2601 54.3019 66.8896 54.6582 66.6125 55.0833C66.3547 55.4906 66.2201 55.9638 66.225 56.4458C66.225 56.9847 66.3694 57.4722 66.6583 57.9083C66.9444 58.3306 67.3542 58.7417 67.8875 59.1417C68.3625 59.5208 69.0125 59.9042 69.7625 60.2833C70.625 60.6625 71.4042 61.0458 72.3583 61.4417C73.6542 61.9958 74.8083 62.6125 75.8167 63.2C76.8292 63.7833 77.6792 64.4708 78.4125 65.25C79.1917 65.9792 79.7542 66.8625 80.1458 67.8875C80.5375 68.9125 80.7375 70.0667 80.7375 71.4C80.7375 73.3042 80.2875 74.7708 79.7125 76.0875Z" fill="black"/>
</g>
</svg>
