<svg width="50" height="50" viewBox="0 0 50 50" fill="none" xmlns="http://www.w3.org/2000/svg">
<rect width="50" height="50" fill="white"/>
<path d="M38.5771 10.2145C35.9292 7.88116 32.3979 7.977 29.3625 9.11866C26.9563 10.0249 25.4229 11.5978 24.5292 13.5207C23.8917 14.8978 23.6 16.4145 23.4917 17.9207C18.5417 17.6228 14.1896 15.1582 11.2729 11.0624C11.1198 10.848 10.915 10.6758 10.6775 10.5618C10.4401 10.4478 10.1776 10.3957 9.91459 10.4103C9.275 10.4437 8.80625 10.8687 8.52709 11.4124C8.15089 12.1694 7.82111 12.9487 7.53959 13.7457C7.00834 15.2707 6.45834 17.4062 6.43542 19.7978C6.41042 22.202 6.92084 24.8937 8.53334 27.4562C9.78125 29.4353 11.6458 31.2728 14.3021 32.827C11.7458 34.227 9.20417 35.0187 6.31042 34.9062C5.95857 34.8924 5.61238 34.9979 5.32799 35.2055C5.04361 35.4132 4.83769 35.7108 4.74363 36.0501C4.64958 36.3894 4.67289 36.7506 4.80981 37.075C4.94672 37.3994 5.18919 37.6681 5.49792 37.8374C11.9667 41.3791 19.1542 42.677 25.5021 40.827C35.8354 37.8082 41.8625 28.1395 41.9042 17.9082C41.9948 17.7082 42.09 17.5102 42.1896 17.3145C42.3354 17.0214 42.5007 16.6971 42.6854 16.3416C42.8521 16.0221 43.0313 15.6721 43.2229 15.2916C43.9813 13.7937 44.9271 11.8541 45.2667 10.4791C45.3384 10.1899 45.3259 9.88631 45.2308 9.60401C45.1356 9.32171 44.9618 9.07249 44.7297 8.88572C44.4976 8.69895 44.217 8.58243 43.9208 8.54988C43.6247 8.51733 43.3255 8.57011 43.0583 8.702C41.7833 9.33116 40.5729 9.6645 39.1854 10.0457L38.5771 10.2145Z" fill="black"/>
</svg>
